<?xml version="1.0" encoding="utf-8"?>
<!-- Generator: Adobe Illustrator 16.0.3, SVG Export Plug-In . SVG Version: 6.00 Build 0)  -->
<!DOCTYPE svg PUBLIC "-//W3C//DTD SVG 1.1//EN" "http://www.w3.org/Graphics/SVG/1.1/DTD/svg11.dtd">
<svg version="1.1" id="Layer_1" xmlns="http://www.w3.org/2000/svg" xmlns:xlink="http://www.w3.org/1999/xlink" x="0px" y="0px"
	 width="32px" height="32px" viewBox="0 0 32 32" enable-background="new 0 0 32 32" xml:space="preserve">
<path d="M23,0H9C7.35,0,6,1.35,6,3v26c0,1.65,1.35,3,3,3h14c1.65,0,3-1.35,3-3V3C26,1.35,24.65,0,23,0z M18,30h-4
	c-0.55,0-1-0.45-1-1s0.45-1,1-1h4c0.55,0,1,0.45,1,1S18.55,30,18,30z M24,25c0,0.55-0.45,1-1,1H9c-0.55,0-1-0.45-1-1V3
	c0-0.55,0.45-1,1-1h14c0.55,0,1,0.45,1,1V25z"/>
<g>
	<path d="M16.26,9.116c-1.79,0-2.477,1.686-2.477,4.85c0,2.956,1.041,4.433,2.852,4.433c1.435,0,2.58-0.748,3.539-1.436
		c0.645,0.438,1.373,1.354,1.518,2.145c-1.186,1.164-3.371,2.205-5.66,2.205c-4.392,0-5.745-3.787-5.745-7.368
		c0-5.245,2.769-7.493,6.078-7.493c3.226,0,5.349,1.894,5.349,4.329c0,1.311-0.707,1.853-1.895,1.853
		c-0.498,0-0.873-0.083-1.27-0.188C18.592,10.719,18.092,9.116,16.26,9.116z"/>
</g>
</svg>
