<?xml version="1.0" encoding="utf-8"?>
<!-- Generator: Adobe Illustrator 16.0.3, SVG Export Plug-In . SVG Version: 6.00 Build 0)  -->
<!DOCTYPE svg PUBLIC "-//W3C//DTD SVG 1.1//EN" "http://www.w3.org/Graphics/SVG/1.1/DTD/svg11.dtd">
<svg version="1.1" id="Layer_1" xmlns="http://www.w3.org/2000/svg" xmlns:xlink="http://www.w3.org/1999/xlink" x="0px" y="0px"
	 width="64px" height="64px" viewBox="0 0 64 64" enable-background="new 0 0 64 64" xml:space="preserve">
<g>
	<g>
		<path fill="#95CB1F" d="M32.695,30.315c0,0,9.338-2.678,13.092-3.755c7.229-2.073,11.411-9.615,9.338-16.846
			c-2.072-7.23-9.617-11.412-16.848-9.338c-7.229,2.074-11.41,9.617-9.336,16.847C29.938,20.701,32.695,30.315,32.695,30.315z
			 M40.656,8.772c2.614-0.749,5.341,0.763,6.09,3.375c0.75,2.615-0.764,5.341-3.376,6.09c-2.615,0.75-5.339-0.761-6.089-3.376
			C36.532,12.25,38.042,9.522,40.656,8.772z"/>
		<path fill="#EE4756" d="M17.223,34.752c3.477-0.998,13.092-3.755,13.092-3.755s-2.678-9.339-3.753-13.092
			c-2.074-7.23-9.618-11.412-16.848-9.338c-7.232,2.073-11.41,9.617-9.336,16.847C2.451,32.644,9.991,36.825,17.223,34.752z
			 M8.717,23.052c-0.749-2.612,0.761-5.339,3.376-6.089c2.612-0.749,5.339,0.763,6.088,3.375c0.75,2.614-0.762,5.341-3.376,6.09
			C12.191,27.178,9.466,25.667,8.717,23.052z"/>
		<path fill="#F9D714" d="M63.316,38.278c-2.074-7.231-9.615-11.412-16.848-9.338c-3.477,0.997-13.092,3.753-13.092,3.753
			s2.679,9.34,3.755,13.094c2.073,7.23,9.615,11.41,16.846,9.337S65.389,45.509,63.316,38.278z M51.562,46.802
			c-2.613,0.749-5.34-0.761-6.09-3.375c-0.749-2.612,0.763-5.342,3.375-6.091s5.341,0.764,6.09,3.374
			C55.686,43.326,54.174,46.053,51.562,46.802z"/>
		<path fill="#309A3A" d="M30.999,33.377c0,0-9.339,2.677-13.094,3.754c-7.229,2.072-11.409,9.615-9.337,16.845
			c2.074,7.231,9.615,11.412,16.846,9.338c7.229-2.071,11.412-9.614,9.339-16.845C33.755,42.992,30.999,33.377,30.999,33.377z
			 M22.997,54.992c-2.613,0.749-5.341-0.764-6.089-3.374c-0.75-2.614,0.761-5.341,3.376-6.09c2.612-0.75,5.339,0.761,6.088,3.373
			C27.122,51.515,25.609,54.243,22.997,54.992z"/>
	</g>
	<g>
		<path fill="#95CB1F" d="M31.338,34.564c0.121,0.417,0.266,0.927,0.432,1.507C31.604,35.491,31.459,34.984,31.338,34.564z"/>
		<path fill="#95CB1F" d="M28.696,34.036c0.132-0.037,0.245-0.07,0.367-0.104C28.941,33.966,28.825,33.999,28.696,34.036z"/>
		<path fill="#95CB1F" d="M58.851,31.5L58.851,31.5c-3.043-2.486-7.105-3.621-11.18-2.838l0,0
			C51.745,27.879,55.808,29.014,58.851,31.5z"/>
		<path fill="#95CB1F" d="M8.901,45.504L8.901,45.504c-0.777,2.089-1.044,4.379-0.702,6.693l0,0
			C7.856,49.882,8.126,47.593,8.901,45.504z"/>
		<path fill="#95CB1F" d="M30.546,33.506c0.014-0.004,0.033-0.009,0.047-0.013C30.579,33.497,30.56,33.502,30.546,33.506z"/>
		<path fill="#95CB1F" d="M32.165,37.445c0.019,0.066,0.037,0.127,0.055,0.191C32.201,37.572,32.185,37.511,32.165,37.445z"/>
		<path fill="#95CB1F" d="M35.122,48.253c-0.021-0.143-0.028-0.283-0.054-0.426C35.094,47.97,35.103,48.11,35.122,48.253
			L35.122,48.253z"/>
		<path fill="#95CB1F" d="M19.359,34.14L19.359,34.14c3.711-1.065,9.73-2.791,10.781-3.092
			C29.105,31.344,23.213,33.032,19.359,34.14z"/>
		<path fill="#95CB1F" d="M19.404,9.417c-1.738-0.842-3.65-1.334-5.627-1.379c1.978,0.046,3.889,0.537,5.625,1.379
			C19.403,9.417,19.403,9.417,19.404,9.417z"/>
		<path fill="#95CB1F" d="M0.149,18.828L0.149,18.828c-0.359,1.684-0.406,3.454-0.089,5.229
			C-0.257,22.282-0.211,20.511,0.149,18.828z"/>
		<path fill="#95CB1F" d="M33.226,41.147c0.181,0.63,0.361,1.255,0.532,1.855C33.587,42.406,33.408,41.782,33.226,41.147z"/>
		<path fill="#95CB1F" d="M31.098,33.726c0.009,0.03,0.014,0.047,0.023,0.08C31.111,33.771,31.106,33.756,31.098,33.726z"/>
		<path fill="#95CB1F" d="M55.125,9.714c-0.491-1.712-1.297-3.244-2.324-4.572l0,0C53.827,6.469,54.634,8.002,55.125,9.714z"/>
		<path fill="#95CB1F" d="M55.125,9.714c0.389,1.355,0.557,2.723,0.527,4.061C55.682,12.437,55.514,11.069,55.125,9.714z"/>
		<path fill="#95CB1F" d="M35.901,41.499c0.286,0.996,0.562,1.96,0.813,2.835l0,0C36.472,43.485,36.192,42.515,35.901,41.499z"/>
		<path fill="#95CB1F" d="M34.233,44.659c0.065,0.223,0.126,0.435,0.183,0.64C34.358,45.097,34.298,44.885,34.233,44.659z"/>
		<path fill="#95CB1F" d="M43.811,27.128c-1.218,0.349-2.622,0.752-4.025,1.153c0,0,0,0,0,0.001
			C41.161,27.888,42.562,27.486,43.811,27.128L43.811,27.128z"/>
		<path fill="#95CB1F" d="M33.884,29.975c-0.312,0.089-0.584,0.167-0.779,0.223C33.3,30.142,33.575,30.063,33.884,29.975z"/>
		<path fill="#95CB1F" d="M32.646,30.141c0.029,0.103,0.05,0.174,0.05,0.174S32.675,30.245,32.646,30.141z"/>
		<path fill="#95CB1F" d="M55.653,13.776c-0.021,0.903-0.133,1.793-0.328,2.658c-1.052,4.706-4.576,8.704-9.538,10.127
			C51.662,24.877,55.524,19.581,55.653,13.776z"/>
		<path fill="#95CB1F" d="M33.104,30.198c-0.263,0.075-0.409,0.117-0.409,0.117S32.842,30.272,33.104,30.198z"/>
		<path fill="#95CB1F" d="M51.755,3.927c-3.079-3.133-7.59-4.683-12.119-3.868C44.166-0.756,48.676,0.794,51.755,3.927z"/>
		<path fill="#95CB1F" d="M17.223,34.752c-1.357,0.389-2.723,0.558-4.063,0.53C14.5,35.308,15.866,35.141,17.223,34.752z"/>
		<path fill="#95CB1F" d="M9.714,8.567c0.744-0.214,1.494-0.345,2.237-0.429c0.612-0.069,1.222-0.114,1.826-0.1
			C12.436,8.01,11.069,8.178,9.714,8.567z"/>
		<path fill="#95CB1F" d="M30.315,30.997c0,0-0.069,0.021-0.175,0.05C30.246,31.018,30.315,30.997,30.315,30.997z"/>
		<path fill="#95CB1F" d="M30.315,30.997c0,0-2.678-9.339-3.753-13.092c1.012,3.528,2.899,10.114,3.535,12.332
			C30.234,30.712,30.315,30.997,30.315,30.997z"/>
		<path fill="#95CB1F" d="M34.482,36.551c-0.125-0.439-0.242-0.848-0.352-1.23C34.24,35.703,34.357,36.112,34.482,36.551z"/>
		<path fill="#95CB1F" d="M35.266,39.28c-0.133-0.465-0.266-0.924-0.393-1.37C35,38.356,35.133,38.817,35.266,39.28z"/>
		<path fill="#95CB1F" d="M41.308,30.421c-1.879,0.537-3.812,1.092-5.31,1.521C37.502,31.511,39.447,30.955,41.308,30.421z"/>
		<path fill="#95CB1F" d="M59.945,32.49c0.234,0.24,0.453,0.493,0.667,0.75C60.398,32.982,60.18,32.729,59.945,32.49z"/>
		<path fill="#95CB1F" d="M44.609,29.474c-0.515,0.147-1.06,0.304-1.636,0.469C43.558,29.775,44.103,29.619,44.609,29.474z"/>
		<path fill="#95CB1F" d="M45.271,29.284c0.465-0.133,0.881-0.251,1.198-0.344C46.13,29.037,45.714,29.156,45.271,29.284z"/>
		<path fill="#95CB1F" d="M33.8,32.573c0.193-0.056,0.459-0.131,0.767-0.22C34.262,32.44,33.99,32.519,33.8,32.573z"/>
		<path fill="#95CB1F" d="M33.508,33.147c0.04,0.136,0.086,0.301,0.142,0.49C33.594,33.448,33.548,33.283,33.508,33.147z"/>
		<path fill="#95CB1F" d="M33.377,32.693c0,0,0.154-0.041,0.411-0.116C33.528,32.652,33.377,32.693,33.377,32.693z"/>
		<path fill="#95CB1F" d="M60.827,33.477c1.111,1.376,1.971,2.996,2.489,4.802C62.798,36.473,61.938,34.853,60.827,33.477z"/>
		<path fill="#95CB1F" d="M35.686,40.744c0.072,0.255,0.145,0.506,0.216,0.755c-0.022-0.08-0.046-0.163-0.068-0.241
			C35.783,41.085,35.734,40.916,35.686,40.744z"/>
		<path fill="#95CB1F" d="M33.492,33.092c-0.073-0.257-0.115-0.398-0.115-0.398S33.419,32.84,33.492,33.092z"/>
		<path fill="#95CB1F" d="M34.752,46.469c-0.096-0.334-0.211-0.737-0.336-1.17C34.548,45.75,34.662,46.155,34.752,46.469z"/>
		<path fill="#95CB1F" d="M28.696,34.036c-0.913,0.262-2.032,0.583-3.215,0.923c0.245-0.07,0.483-0.14,0.719-0.207
			C27.12,34.488,27.972,34.244,28.696,34.036z"/>
		<path fill="#95CB1F" d="M31.338,34.564c-0.086-0.301-0.163-0.567-0.218-0.76C31.176,33.997,31.251,34.262,31.338,34.564z"/>
		<path fill="#95CB1F" d="M21.56,36.083c-1.414,0.405-2.711,0.777-3.655,1.048C18.926,36.838,20.206,36.471,21.56,36.083z"/>
		<path fill="#95CB1F" d="M32.22,37.637c0.317,1.111,0.666,2.324,1.006,3.511C32.884,39.954,32.537,38.744,32.22,37.637z"/>
		<path fill="#95CB1F" d="M26.73,62.864c-0.424,0.17-0.866,0.321-1.317,0.449C25.864,63.186,26.307,63.03,26.73,62.864z"/>
		<path fill="#95CB1F" d="M29.063,33.932c0.632-0.181,1.149-0.331,1.483-0.426C30.212,33.601,29.693,33.751,29.063,33.932z"/>
		<path fill="#95CB1F" d="M30.593,33.493c0.258-0.074,0.405-0.116,0.405-0.116S30.854,33.418,30.593,33.493z"/>
		<path fill="#95CB1F" d="M33.758,43.003c0.172,0.592,0.331,1.146,0.476,1.656C34.085,44.141,33.927,43.588,33.758,43.003z"/>
		<path fill="#95CB1F" d="M31.77,36.071c0.123,0.427,0.256,0.888,0.395,1.374C32.025,36.957,31.895,36.5,31.77,36.071z"/>
		<path fill="#95CB1F" d="M30.999,33.377c0,0,0.038,0.137,0.099,0.347C31.037,33.512,30.999,33.377,30.999,33.377z"/>
		<path fill="#95CB1F" d="M9.714,8.567c-5.011,1.437-8.551,5.499-9.565,10.261l0,0C1.166,14.066,4.705,10.004,9.714,8.567z"/>
		<path fill="#B01217" d="M0.149,18.828c0.218-0.049,0.438-0.088,0.655-0.152c2.953-0.845,13.092-3.751,13.092-3.751
			s-0.936-3.266-1.945-6.785c-0.744,0.083-1.493,0.215-2.238,0.428C4.705,10.004,1.166,14.066,0.149,18.828z"/>
		<path fill="#95CB1F" d="M17.223,34.752c0.518-0.149,1.267-0.363,2.137-0.612l0,0C18.535,34.375,17.79,34.588,17.223,34.752z"/>
		<path fill="#95CB1F" d="M0.828,26.733c2.053,5.129,6.973,8.427,12.333,8.549C7.804,35.158,2.88,31.862,0.828,26.733z"/>
		<path fill="#F35896" d="M19.359,34.14c-1.246-3.462-3.772-6.136-6.888-7.64c-0.612-0.125-1.19-0.363-1.708-0.705
			c-2.493-0.808-5.244-0.91-7.956-0.132c-0.725,0.207-1.411,0.484-2.072,0.798c0.033,0.089,0.058,0.184,0.092,0.271
			c2.052,5.129,6.975,8.426,12.333,8.548c1.34,0.027,2.705-0.141,4.062-0.53C17.79,34.588,18.535,34.375,19.359,34.14z"/>
		<path fill="#95CB1F" d="M26.109,16.585c-1.293-3.236-3.74-5.729-6.707-7.169l0,0C22.372,10.856,24.816,13.351,26.109,16.585z"/>
		<path fill="#95CB1F" d="M19.403,9.417c-1.734,2.764-2.484,6.129-1.903,9.519c0.289,0.422,0.534,0.882,0.682,1.402
			c0.147,0.512,0.182,1.025,0.165,1.528c2.019,4.881,6.646,8.058,11.751,8.37c-0.636-2.218-2.523-8.804-3.535-12.332
			c-0.13-0.452-0.282-0.892-0.452-1.319C24.816,13.351,22.372,10.856,19.403,9.417z"/>
		<path fill="#F65536" d="M19.403,9.417c-1.734,2.764-2.484,6.129-1.903,9.519c0.289,0.422,0.534,0.882,0.682,1.402
			c0.147,0.512,0.182,1.025,0.165,1.528c2.019,4.881,6.646,8.058,11.751,8.37c-0.636-2.218-2.523-8.804-3.535-12.332
			c-0.13-0.452-0.282-0.892-0.452-1.319C24.816,13.351,22.372,10.856,19.403,9.417z"/>
		<path fill="#95CB1F" d="M43.811,27.128L43.811,27.128c0.718-0.207,1.394-0.399,1.977-0.567
			C45.234,26.72,44.556,26.915,43.811,27.128z"/>
		<path fill="#3CB6D1" d="M55.325,16.434c-0.646,0.089-1.298,0.207-1.942,0.392c-5.023,1.441-8.568,5.523-9.572,10.304
			c0.746-0.213,1.424-0.408,1.977-0.567C50.749,25.137,54.273,21.14,55.325,16.434z"/>
		<path fill="#95CB1F" d="M52.801,5.143c-0.329-0.426-0.673-0.835-1.045-1.215C52.128,4.307,52.471,4.716,52.801,5.143L52.801,5.143
			z"/>
		<path fill="#95CB1F" d="M38.913,9.168c0,0,8.81-2.527,13.093-3.755c0.271-0.078,0.533-0.178,0.795-0.271
			c-0.329-0.426-0.673-0.835-1.045-1.215c-3.08-3.133-7.59-4.684-12.12-3.869c-0.454,0.083-0.905,0.189-1.358,0.317
			c-0.592,0.17-1.154,0.388-1.705,0.629C37.67,4.833,38.913,9.168,38.913,9.168z"/>
		<path fill="#6ABA22" d="M38.913,9.168c0,0,8.81-2.527,13.093-3.755c0.271-0.078,0.533-0.178,0.795-0.271
			c-0.329-0.426-0.673-0.835-1.045-1.215c-3.08-3.133-7.59-4.684-12.12-3.869c-0.454,0.083-0.905,0.189-1.358,0.317
			c-0.592,0.17-1.154,0.388-1.705,0.629C37.67,4.833,38.913,9.168,38.913,9.168z"/>
		<path opacity="0.6" fill="#95CB1F" enable-background="new    " d="M32.646,30.141c-0.362-1.26-2.783-9.702-3.704-12.918
			C29.725,19.957,32.273,28.843,32.646,30.141z"/>
		<path opacity="0.6" fill="#95CB1F" enable-background="new    " d="M39.785,28.281c-2.311,0.663-4.576,1.312-5.901,1.694
			C35.201,29.597,37.449,28.952,39.785,28.281C39.785,28.281,39.785,28.281,39.785,28.281z"/>
		<path opacity="0.6" fill="#95CB1F" enable-background="new    " d="M33.104,30.198L33.104,30.198L33.104,30.198z"/>
		<path fill="#95CB1F" d="M39.785,28.281c1.908-2.822,2.746-6.338,2.148-9.875c-2.109-0.034-4.04-1.409-4.652-3.545
			c-0.41-1.432-0.126-2.886,0.632-4.042c-2.152-2.054-4.931-3.372-7.915-3.703c-1.585,3-2.065,6.588-1.056,10.106
			c0.922,3.215,3.343,11.657,3.705,12.918c0.029,0.104,0.049,0.174,0.049,0.174s0.147-0.042,0.409-0.117l0,0
			c0.196-0.056,0.468-0.134,0.779-0.223C35.21,29.593,37.475,28.944,39.785,28.281z"/>
		<path fill="#A6D624" d="M39.785,28.281c1.908-2.822,2.746-6.338,2.148-9.875c-2.109-0.034-4.04-1.409-4.652-3.545
			c-0.41-1.432-0.126-2.886,0.632-4.042c-2.152-2.054-4.931-3.372-7.915-3.703c-1.585,3-2.065,6.588-1.056,10.106
			c0.922,3.215,3.343,11.657,3.705,12.918c0.029,0.104,0.049,0.174,0.049,0.174s0.147-0.042,0.409-0.117l0,0
			c0.196-0.056,0.468-0.134,0.779-0.223C35.21,29.593,37.475,28.944,39.785,28.281z"/>
		<path opacity="0.6" fill="#95CB1F" enable-background="new    " d="M33.789,32.577c0.006-0.002,0.005-0.003,0.011-0.004
			C33.794,32.574,33.795,32.575,33.789,32.577z"/>
		<path opacity="0.6" fill="#95CB1F" enable-background="new    " d="M35.686,40.744c-0.14-0.486-0.28-0.977-0.42-1.466
			C35.405,39.766,35.545,40.256,35.686,40.744z"/>
		<path opacity="0.6" fill="#95CB1F" enable-background="new    " d="M47.671,28.662c-0.402,0.076-0.801,0.165-1.201,0.28
			C46.869,28.825,47.269,28.737,47.671,28.662L47.671,28.662z"/>
		<path opacity="0.6" fill="#95CB1F" enable-background="new    " d="M41.308,30.421c0.563-0.163,1.127-0.324,1.666-0.479
			C42.437,30.098,41.876,30.256,41.308,30.421z"/>
		<path opacity="0.6" fill="#95CB1F" enable-background="new    " d="M34.566,32.354c0.401-0.116,0.883-0.254,1.432-0.411
			C35.445,32.101,34.968,32.238,34.566,32.354z"/>
		<path opacity="0.6" fill="#95CB1F" enable-background="new    " d="M34.873,37.91c-0.134-0.473-0.264-0.925-0.391-1.359
			C34.607,36.983,34.738,37.44,34.873,37.91z"/>
		<path opacity="0.6" fill="#95CB1F" enable-background="new    " d="M34.131,35.32c-0.191-0.664-0.355-1.243-0.481-1.683
			C33.775,34.077,33.938,34.652,34.131,35.32z"/>
		<path opacity="0.6" fill="#95CB1F" enable-background="new    " d="M44.609,29.474c0.231-0.065,0.448-0.129,0.661-0.19
			C45.063,29.345,44.842,29.407,44.609,29.474z"/>
		<path opacity="0.6" fill="#95CB1F" enable-background="new    " d="M33.508,33.147c-0.006-0.019-0.011-0.04-0.016-0.056
			C33.497,33.105,33.502,33.131,33.508,33.147z"/>
		<path fill="#95CB1F" d="M37.848,40.855c5.673-1.625,9.454-6.625,9.823-12.194c-0.402,0.076-0.801,0.165-1.201,0.28
			c-0.317,0.092-0.733,0.21-1.198,0.343c-0.212,0.061-0.431,0.125-0.66,0.189c-0.509,0.145-1.053,0.302-1.637,0.47
			c-0.538,0.154-1.103,0.314-1.667,0.479c-1.859,0.533-3.805,1.09-5.309,1.521c-0.549,0.157-1.029,0.295-1.433,0.411
			c-0.305,0.087-0.571,0.164-0.766,0.22c-0.006,0.001-0.005,0.002-0.012,0.004c-0.257,0.074-0.41,0.117-0.41,0.117
			s0.043,0.141,0.113,0.396c0.008,0.018,0.011,0.036,0.017,0.054c0.04,0.136,0.087,0.303,0.142,0.492
			c0.126,0.438,0.291,1.017,0.481,1.683c0.109,0.382,0.227,0.791,0.353,1.229c0.127,0.437,0.255,0.889,0.39,1.361
			c0.128,0.444,0.261,0.905,0.394,1.369c0.14,0.488,0.28,0.979,0.42,1.464c0.048,0.172,0.097,0.342,0.147,0.515
			C36.504,41.171,37.177,41.049,37.848,40.855z"/>
		<path fill="#C0D517" d="M37.848,40.855c5.673-1.625,9.454-6.625,9.823-12.194c-0.402,0.076-0.801,0.165-1.201,0.28
			c-0.317,0.092-0.733,0.21-1.198,0.343c-0.212,0.061-0.431,0.125-0.66,0.189c-0.509,0.145-1.053,0.302-1.637,0.47
			c-0.538,0.154-1.103,0.314-1.667,0.479c-1.859,0.533-3.805,1.09-5.309,1.521c-0.549,0.157-1.029,0.295-1.433,0.411
			c-0.305,0.087-0.571,0.164-0.766,0.22c-0.006,0.001-0.005,0.002-0.012,0.004c-0.257,0.074-0.41,0.117-0.41,0.117
			s0.043,0.141,0.113,0.396c0.008,0.018,0.011,0.036,0.017,0.054c0.04,0.136,0.087,0.303,0.142,0.492
			c0.126,0.438,0.291,1.017,0.481,1.683c0.109,0.382,0.227,0.791,0.353,1.229c0.127,0.437,0.255,0.889,0.39,1.361
			c0.128,0.444,0.261,0.905,0.394,1.369c0.14,0.488,0.28,0.979,0.42,1.464c0.048,0.172,0.097,0.342,0.147,0.515
			C36.504,41.171,37.177,41.049,37.848,40.855z"/>
		<path fill="#95CB1F" d="M36.715,44.336c0.149,0.52,0.291,1.013,0.417,1.451C37.012,45.368,36.869,44.873,36.715,44.336
			L36.715,44.336z"/>
		<path fill="#95CB1F" d="M55.111,41.771c0.139,2.254-1.291,4.383-3.551,5.031c-2.613,0.749-5.339-0.761-6.089-3.375
			c-0.243-0.849-0.227-1.702-0.035-2.503c-1.617,0.464-3.177,0.91-4.377,1.255c-1.618,0.464-3.067,1.211-4.345,2.155
			c0.154,0.539,0.297,1.034,0.417,1.452c2.073,7.23,9.615,11.411,16.846,9.336c1.584-0.452,3.007-1.179,4.264-2.098
			c-0.085-0.503-0.19-1.007-0.334-1.507C57.376,49.668,56.038,45.001,55.111,41.771z"/>
		<path fill="#F9EA17" d="M55.111,41.771c0.139,2.254-1.291,4.383-3.551,5.031c-2.613,0.749-5.339-0.761-6.089-3.375
			c-0.243-0.849-0.227-1.702-0.035-2.503c-1.617,0.464-3.177,0.91-4.377,1.255c-1.618,0.464-3.067,1.211-4.345,2.155
			c0.154,0.539,0.297,1.034,0.417,1.452c2.073,7.23,9.615,11.411,16.846,9.336c1.584-0.452,3.007-1.179,4.264-2.098
			c-0.085-0.503-0.19-1.007-0.334-1.507C57.376,49.668,56.038,45.001,55.111,41.771z"/>
		<path fill="#95CB1F" d="M54.152,38.426c0,0-0.196,0.055-0.515,0.148c0.345,0.335,0.649,0.712,0.886,1.145
			C54.297,38.931,54.152,38.426,54.152,38.426z"/>
		<path fill="#F9EA17" d="M54.152,38.426c0,0-0.196,0.055-0.515,0.148c0.345,0.335,0.649,0.712,0.886,1.145
			C54.297,38.931,54.152,38.426,54.152,38.426z"/>
		<path opacity="0.6" fill="#95CB1F" enable-background="new    " d="M59.945,32.49c-0.345-0.351-0.714-0.678-1.095-0.99l0,0
			C59.231,31.812,59.601,32.139,59.945,32.49z"/>
		<path opacity="0.6" fill="#95CB1F" enable-background="new    " d="M60.612,33.239c0.071,0.08,0.146,0.155,0.213,0.238
			C60.759,33.393,60.684,33.319,60.612,33.239z"/>
		<path fill="#95CB1F" d="M57.529,42.085c0.794,2.769,2.393,5.084,4.467,6.776c1.794-3.09,2.383-6.876,1.32-10.583
			c-0.519-1.806-1.378-3.426-2.489-4.802c-0.068-0.084-0.143-0.159-0.213-0.238c-0.215-0.256-0.435-0.509-0.667-0.75
			c-0.347-0.35-0.714-0.677-1.095-0.989C57.057,34.594,56.467,38.376,57.529,42.085z"/>
		<path fill="#F8C20F" d="M57.529,42.085c0.794,2.769,2.393,5.084,4.467,6.776c1.794-3.09,2.383-6.876,1.32-10.583
			c-0.519-1.806-1.378-3.426-2.489-4.802c-0.068-0.084-0.143-0.159-0.213-0.238c-0.215-0.256-0.435-0.509-0.667-0.75
			c-0.347-0.35-0.714-0.677-1.095-0.989C57.057,34.594,56.467,38.376,57.529,42.085z"/>
		<path fill="#95CB1F" d="M9.019,55.298c1.145,2.861,3.193,5.142,5.704,6.633c-0.001-0.002-0.001-0.002-0.001-0.002
			C12.211,60.439,10.164,58.16,9.019,55.298z"/>
		<path fill="#95CB1F" d="M8.199,52.197L8.199,52.197c0.02,0.141,0.027,0.281,0.051,0.424C8.226,52.479,8.218,52.338,8.199,52.197z"
			/>
		<path fill="#95CB1F" d="M14.721,61.929c0.549-2.911,2.038-5.574,4.233-7.567c-0.954-0.623-1.708-1.564-2.046-2.743
			c-0.181-0.631-0.224-1.262-0.157-1.874c-2.083,0.599-5.607,1.608-8.552,2.453c0.02,0.141,0.027,0.281,0.051,0.424
			c0.083,0.452,0.188,0.904,0.317,1.354c0.129,0.453,0.281,0.893,0.451,1.322C10.164,58.16,12.211,60.439,14.721,61.929z"/>
		<path fill="#2D9E3C" d="M14.721,61.929c0.549-2.911,2.038-5.574,4.233-7.567c-0.954-0.623-1.708-1.564-2.046-2.743
			c-0.181-0.631-0.224-1.262-0.157-1.874c-2.083,0.599-5.607,1.608-8.552,2.453c0.02,0.141,0.027,0.281,0.051,0.424
			c0.083,0.452,0.188,0.904,0.317,1.354c0.129,0.453,0.281,0.893,0.451,1.322C10.164,58.16,12.211,60.439,14.721,61.929z"/>
		<path fill="#95CB1F" d="M17.904,37.131c-4.33,1.241-7.55,4.45-9.003,8.373l0,0C10.355,41.582,13.576,38.372,17.904,37.131z"/>
		<path fill="#95CB1F" d="M25.481,34.959c-1.273,0.366-2.628,0.753-3.921,1.124C22.834,35.718,24.195,35.327,25.481,34.959z"/>
		<path fill="#95CB1F" d="M8.901,45.504c2.409,0.72,5.045,0.792,7.644,0.048c5.196-1.489,8.8-5.809,9.655-10.8
			c-0.235,0.067-0.474,0.137-0.719,0.207c-1.285,0.368-2.647,0.759-3.921,1.124c-1.354,0.388-2.635,0.755-3.655,1.048
			C13.576,38.372,10.355,41.582,8.901,45.504z"/>
		<path fill="#4FB045" d="M8.901,45.504c2.409,0.72,5.045,0.792,7.644,0.048c5.196-1.489,8.8-5.809,9.655-10.8
			c-0.235,0.067-0.474,0.137-0.719,0.207c-1.285,0.368-2.647,0.759-3.921,1.124c-1.354,0.388-2.635,0.755-3.655,1.048
			C13.576,38.372,10.355,41.582,8.901,45.504z"/>
		<path fill="#95CB1F" d="M26.73,62.864c5.852-2.342,9.306-8.415,8.392-14.611l0,0C36.036,54.449,32.581,60.526,26.73,62.864z"/>
		<path fill="#95CB1F" d="M22.629,63.808c0.924-0.067,1.856-0.228,2.784-0.494C24.486,63.58,23.553,63.74,22.629,63.808
			L22.629,63.808z"/>
		<path fill="#95CB1F" d="M35.122,48.253c-2.267,0.65-5.776,1.657-8.59,2.463c-0.184,1.961-1.531,3.702-3.535,4.276
			c-0.958,0.274-1.93,0.239-2.813-0.035c0.811,2.831,1.703,5.938,2.112,7.364c0.142,0.494,0.247,0.991,0.333,1.486
			c0.923-0.069,1.856-0.229,2.784-0.494c0.451-0.128,0.894-0.281,1.317-0.448C32.581,60.526,36.036,54.449,35.122,48.253z"/>
		<path fill="#38784D" d="M35.122,48.253c-2.267,0.65-5.776,1.657-8.59,2.463c-0.184,1.961-1.531,3.702-3.535,4.276
			c-0.958,0.274-1.93,0.239-2.813-0.035c0.811,2.831,1.703,5.938,2.112,7.364c0.142,0.494,0.247,0.991,0.333,1.486
			c0.923-0.069,1.856-0.229,2.784-0.494c0.451-0.128,0.894-0.281,1.317-0.448C32.581,60.526,36.036,54.449,35.122,48.253z"/>
		<path fill="#95CB1F" d="M14.721,61.929c0,0,0,0,0.001,0.002c2.342,1.385,5.087,2.082,7.906,1.877l0,0
			C19.81,64.011,17.064,63.316,14.721,61.929z"/>
		<path fill="#95CB1F" d="M14.721,61.929c0,0,0,0,0.001,0.002c2.342,1.385,5.087,2.082,7.906,1.877l0,0
			C19.81,64.011,17.064,63.316,14.721,61.929z"/>
		<path fill="#95CB1F" d="M14.721,61.929c2.343,1.388,5.088,2.082,7.907,1.879c-0.086-0.495-0.191-0.992-0.333-1.486
			c-0.409-1.427-1.301-4.534-2.112-7.364c-0.439-0.137-0.846-0.346-1.23-0.596C16.759,56.354,15.271,59.018,14.721,61.929z"/>
		<path fill="#95CB1F" d="M14.721,61.929c2.343,1.388,5.088,2.082,7.907,1.879c-0.086-0.495-0.191-0.992-0.333-1.486
			c-0.409-1.427-1.301-4.534-2.112-7.364c-0.439-0.137-0.846-0.346-1.23-0.596C16.759,56.354,15.271,59.018,14.721,61.929z"/>
		<path fill="#6FB62E" d="M14.721,61.929c2.343,1.388,5.088,2.082,7.907,1.879c-0.086-0.495-0.191-0.992-0.333-1.486
			c-0.409-1.427-1.301-4.534-2.112-7.364c-0.439-0.137-0.846-0.346-1.23-0.596C16.759,56.354,15.271,59.018,14.721,61.929z"/>
	</g>
</g>
</svg>
